<svg xmlns="http://www.w3.org/2000/svg" width="765" height="175" viewBox="118.5468 114.7228 765 175" role="img" aria-label="SimVida">
    <g id="simvida_logo" stroke="none" fill="none" transform="translate(118.5468, 114.7228)">
        <path d="M704.627919,56.7148944 C712.871053,56.7148944 719.286701,58.3448894 723.874861,61.6048794 C728.463021,64.8648694 732.545705,68.7458098 736.122915,73.2477008 L738.455877,64.3991565 C739.078001,61.760117 739.77789,60.0136938 740.555544,59.1598869 C741.333198,58.30608 742.810741,57.8791765 744.988173,57.8791765 L758.052764,58.3448894 C759.763603,58.3448894 761.318912,58.9270305 762.718689,60.0913126 C764.118467,61.2555947 764.818356,62.7691615 764.818356,64.6320129 L764.818356,166.855985 C764.818356,168.718836 764.118467,170.154784 762.718689,171.163829 C761.318912,172.172873 759.763603,172.677396 758.052764,172.677396 L743.121803,172.677396 C740.78884,172.677396 739.194649,172.095254 738.339229,170.930972 C737.48381,169.76669 736.900569,168.253123 736.589507,166.390272 L736.330548,165.066483 C736.198347,164.371795 736.085587,163.745023 735.992269,163.186168 L735.786968,161.910114 C735.637658,161.015946 735.438579,159.947911 735.18973,158.70601 C733.789952,160.724099 732.234644,162.742188 730.523804,164.760277 C728.812965,166.778366 726.791064,168.524789 724.458101,169.999547 C722.125139,171.474304 719.403349,172.677396 716.292732,173.608821 C713.182115,174.540247 709.449375,175.00596 705.094511,175.00596 L704.627919,175.00596 C696.384784,175.00596 688.802655,173.492393 681.881532,170.465259 C674.96041,167.438126 669.011355,163.24671 664.034368,157.891012 C659.057381,152.535315 655.16911,146.287 652.369554,139.14607 C649.569999,132.005139 648.170222,124.243259 648.170222,115.860427 C648.170222,107.477596 649.531117,99.6769054 652.252906,92.4583561 C654.974696,85.2398068 658.824085,78.9914927 663.801072,73.7134136 C668.778059,68.4353346 674.727113,64.2827283 681.648236,61.2555947 C688.569359,58.2284612 696.229253,56.7148944 704.627919,56.7148944 Z M706.494289,85.1233786 C702.294956,85.1233786 698.445567,85.9383761 694.946123,87.5683711 C691.446679,89.1983661 688.491593,91.4493116 686.080865,94.3212075 C683.670137,97.1931035 681.803767,100.491903 680.481755,104.217606 C679.159743,107.943309 678.498736,111.901868 678.498736,116.093284 C678.498736,120.439937 679.159743,124.476115 680.481755,128.201818 C681.803767,131.927521 683.70902,135.187511 686.197513,137.981788 C688.686007,140.776065 691.641093,142.949392 695.062772,144.501768 C698.48445,146.054144 702.294956,146.830332 706.494289,146.830332 C715.204016,146.830332 722.086256,143.919627 727.141008,138.098216 C732.195761,132.276805 734.723137,125.019447 734.723137,116.32614 C734.723137,112.134724 734.101014,108.137356 732.856767,104.334034 C731.61252,100.530712 729.74615,97.1931035 727.257656,94.3212075 C724.769163,91.4493116 721.814077,89.1983661 718.392398,87.5683711 C714.97072,85.9383761 711.004683,85.1233786 706.494289,85.1233786 Z" id="a" fill="#111111" fill-rule="nonzero"/>
        <path d="M0.459462436,152.595348 C0.153154145,152.133273 0,151.363149 0,150.284975 C0,149.822901 0.0765770726,149.283814 0.229731218,148.667715 C0.382885363,148.051616 0.842347799,147.512529 1.60811852,147.050454 L15.6217228,135.72963 C16.0811852,134.959505 16.923533,134.574443 18.1487662,134.574443 C19.0676911,134.574443 20.2929242,135.11353 21.8244657,136.191704 C24.7343944,138.656101 28.0272086,141.351536 31.7029081,144.278007 C35.3786075,147.204479 39.5903465,148.667715 44.338125,148.667715 C49.545366,148.667715 53.1061998,147.551035 55.0206267,145.317675 C56.9350535,143.084315 57.8922669,140.504399 57.8922669,137.577927 C57.8922669,135.883654 57.2030732,134.381912 55.8246859,133.072701 C54.4462986,131.76349 52.8381801,130.569798 51.0003304,129.491624 C49.1624806,128.41345 47.2863423,127.527808 45.3719155,126.834696 C43.4574887,126.141584 41.8876587,125.641003 40.6624256,125.332954 C27.1848608,121.790383 17.4978611,117.208144 11.6014265,111.586238 C5.70499191,105.964332 2.75677461,98.6096467 2.75677461,89.5221821 C2.75677461,85.0554622 3.79056509,80.8582857 5.85814605,76.9306527 C7.92572701,73.0030196 10.8356558,69.5374611 14.5879323,66.533977 C18.3402089,63.5304929 22.8582562,61.1431081 28.1420742,59.3718226 C33.4258922,57.6005371 39.2840382,56.7148944 45.7165123,56.7148944 C53.3742196,56.7148944 60.2661561,57.9855992 66.3923219,60.5270088 C72.5184878,63.0684184 77.8788828,66.4184584 82.4735072,70.5771286 C85.2302818,73.3495755 86.6086691,75.6599478 86.6086691,77.5082457 C86.6086691,78.124345 85.7663213,79.2795312 84.0816257,80.9738043 C82.3969301,82.6680774 80.5207918,84.3623504 78.4532109,86.0566235 C76.3856299,87.7508966 74.394626,89.2526386 72.4801992,90.5618496 C70.5657724,91.8710607 69.3022507,92.5256662 68.6896341,92.5256662 C67.464401,92.5256662 66.1625907,91.8325545 64.7842034,90.446331 C62.6400454,88.5980331 60.113002,86.7882414 57.2030732,85.016956 C54.2931445,83.2456705 50.617445,82.3600277 46.1759748,82.3600277 C43.266046,82.3600277 40.5475599,82.8991146 38.0205165,83.9772884 C35.4934732,85.0554622 34.2299515,87.0577849 34.2299515,89.9842566 C34.2299515,92.7567034 35.7997814,94.9515572 38.9394414,96.5688178 C42.0791014,98.1860785 46.405706,99.8418453 51.9192552,101.536118 C57.7391127,103.538441 63.0612193,105.656282 67.8855749,107.889642 C72.7099304,110.123002 76.8068038,112.702918 80.176195,115.62939 C83.5455862,118.555862 86.1492067,121.905901 87.9870564,125.67951 C89.8249062,129.453118 90.743831,133.881332 90.743831,138.964151 C90.743831,144.817094 89.4803093,150.015432 86.9532659,154.559164 C84.4262225,159.102897 81.0185428,162.876505 76.7302267,165.879989 C72.4419107,168.883473 67.5026895,171.155339 61.9125632,172.695587 C56.3224369,174.235836 50.5408679,175.00596 44.5678563,175.00596 C36.4506866,175.00596 28.8695564,173.542724 21.8244657,170.616252 C14.779375,167.689781 8.80636335,163.53111 3.9054307,158.140242 C2.22073511,156.137919 1.07207902,154.289621 0.459462436,152.595348 Z" id="s" fill="#111111" fill-rule="nonzero"/>
        <g id="i1" stroke-width="1" fill-rule="evenodd" transform="translate(105.3277, 0)" fill="#111111">
            <path d="M34.4664656,62.4969424 L34.4664656,169.464831 C34.4664656,173.158917 32.4389323,175.00596 28.3838656,175.00596 L7.21641756,175.00596 C3.48575622,175.00596 1.62042555,173.158917 1.62042555,169.464831 L1.62042555,62.4969424 C1.62042555,60.7302055 2.10703355,59.3248466 3.08024956,58.2808657 C4.05346556,57.2368848 5.43218822,56.7148944 7.21641756,56.7148944 L28.3838656,56.7148944 C29.8436896,56.7148944 31.2224123,57.2368848 32.5200336,58.2808657 C33.8176549,59.3248466 34.4664656,60.7302055 34.4664656,62.4969424 Z" fill-rule="nonzero"/>
            <path d="M0,17.6499293 C0,12.7599056 1.73617024,8.5957448 5.20851071,5.15744688 C8.68085118,1.71914896 12.8862413,0 17.8246811,0 C22.9174471,0 27.1614188,1.71914896 30.5565962,5.15744688 C33.9517735,8.5957448 35.6493622,12.7599056 35.6493622,17.6499293 C35.6493622,22.539953 33.9517735,26.6659105 30.5565962,30.0278018 C27.1614188,33.3896931 22.9174471,35.0706388 17.8246811,35.0706388 C12.8862413,35.0706388 8.68085118,33.3896931 5.20851071,30.0278018 C1.73617024,26.6659105 0,22.539953 0,17.6499293 Z" fill-rule="nonzero"/>
        </g>
        <path d="M171.641769,58.3776202 L187.184432,58.3776202 C188.597401,58.3776202 189.774875,58.9318622 190.716855,60.040346 C191.658835,61.1488299 192.443817,62.4552573 193.071804,63.9596283 C193.69979,65.4639993 194.210029,67.0871364 194.602521,68.8290397 C194.995012,70.5709429 195.269756,72.1544913 195.426753,73.5796849 C198.723681,69.6208139 203.041088,65.9390638 208.378972,62.5344348 C213.716856,59.1298057 220.153717,57.4274912 227.689553,57.4274912 C235.696379,57.4274912 242.682728,59.2089831 248.648599,62.771967 C254.614469,66.3349509 259.16737,70.6501203 262.307302,75.7174752 C266.075221,70.1750558 271.216859,65.6223541 277.732218,62.0593702 C284.247577,58.4963863 291.037679,56.7148944 298.102526,56.7148944 C306.109352,56.7148944 312.899455,57.9817331 318.472834,60.5154106 C324.046213,63.049088 328.677613,66.5724832 332.367033,71.0855961 C336.056453,75.5987091 338.803893,80.8244188 340.609354,86.7627253 C342.414815,92.7010318 343.396044,99.1539915 343.55304,106.121604 L343.55304,116.810556 L343.55304,169.305186 C343.55304,171.522153 342.885805,173.026524 341.551334,173.818299 C340.216863,174.610073 338.529149,175.00596 336.488194,175.00596 L318.590582,175.00596 C316.078636,175.00596 314.194677,174.649661 312.938704,173.937065 C311.682732,173.224468 311.054745,171.759686 311.054745,169.542718 L311.054745,109.209524 C311.054745,103.19204 309.759523,98.124685 307.169079,94.0074592 C304.578636,89.8902334 300.457475,87.8316204 294.805598,87.8316204 C292.136655,87.8316204 289.428464,88.3858624 286.681024,89.4943463 C283.933583,90.6028301 281.421638,92.1072011 279.145187,94.0074592 C276.868737,95.9077173 275.024027,98.124685 273.611057,100.658362 C272.198088,103.19204 271.491603,105.96325 271.491603,108.971992 L271.491603,169.305186 C271.491603,171.522153 270.863617,173.026524 269.607644,173.818299 C268.351671,174.610073 266.624709,175.00596 264.426756,175.00596 L245.116175,175.00596 C242.761226,175.00596 241.073513,174.649661 240.053035,173.937065 C239.032557,173.224468 238.522318,171.759686 238.522318,169.542718 L238.522318,108.021863 C238.522318,101.529314 236.913103,96.5411366 233.694673,93.0573302 C230.476243,89.5735237 226.041089,87.8316204 220.389211,87.8316204 C217.720269,87.8316204 215.051327,88.3462737 212.382385,89.3755801 C209.713443,90.4048866 207.319245,91.8696689 205.199791,93.7699269 C203.080337,95.670185 201.353374,97.8871528 200.018903,100.42083 C198.684432,102.954508 198.017197,105.64654 198.017197,108.496927 L198.017197,170.017782 C198.017197,173.343234 196.054739,175.00596 192.129824,175.00596 L171.877264,175.00596 C167.481359,175.00596 165.283407,173.264057 165.283407,169.78025 L165.283407,65.7411203 C165.283407,63.5241525 165.989891,61.7426606 167.402861,60.3966444 C168.81583,59.0506283 170.228799,58.3776202 171.641769,58.3776202 Z" id="m" fill="#111111" fill-rule="nonzero"/>
        <g id="i2" stroke-width="1" fill-rule="evenodd" transform="translate(469.9234, 0)" fill="#111111">
            <path d="M34.4664656,62.4969424 L34.4664656,169.464831 C34.4664656,173.158917 32.4389323,175.00596 28.3838656,175.00596 L7.21641756,175.00596 C3.48575622,175.00596 1.62042555,173.158917 1.62042555,169.464831 L1.62042555,62.4969424 C1.62042555,60.7302055 2.10703355,59.3248466 3.08024956,58.2808657 C4.05346556,57.2368848 5.43218822,56.7148944 7.21641756,56.7148944 L28.3838656,56.7148944 C29.8436896,56.7148944 31.2224123,57.2368848 32.5200336,58.2808657 C33.8176549,59.3248466 34.4664656,60.7302055 34.4664656,62.4969424 Z" fill-rule="nonzero"/>
            <path d="M0,17.6499293 C0,12.7599056 1.73617024,8.5957448 5.20851071,5.15744688 C8.68085118,1.71914896 12.8862413,0 17.8246811,0 C22.9174471,0 27.1614188,1.71914896 30.5565962,5.15744688 C33.9517735,8.5957448 35.6493622,12.7599056 35.6493622,17.6499293 C35.6493622,22.539953 33.9517735,26.6659105 30.5565962,30.0278018 C27.1614188,33.3896931 22.9174471,35.0706388 17.8246811,35.0706388 C12.8862413,35.0706388 8.68085118,33.3896931 5.20851071,30.0278018 C1.73617024,26.6659105 0,22.539953 0,17.6499293 Z" fill-rule="nonzero"/>
        </g>
        <g id="v" stroke-width="1" fill-rule="evenodd" transform="translate(343.1107, 56.7149)" fill="#111111">
            <path d="M5.737645,0 L27.0742457,0 C30.2462528,0 33.0890537,1.95797922 34.2198917,4.92156401 L70.8991715,101.046875 C71.5788195,102.828027 71.5687601,104.798796 70.8709649,106.572917 L68.1691055,113.442305 C67.0185125,116.367649 64.1951521,118.291065 61.0516661,118.291065 L50.9172157,118.291065 C47.8160697,118.291065 45.0218869,116.418427 43.8431027,113.550052 L0.432060201,7.91651498 C-0.77212894,4.98632141 0.627074112,1.63474201 3.55726769,0.430552865 C4.24904097,0.146262473 4.98973371,0 5.737645,0 Z"/>
            <path d="M113.016709,0 L91.6321779,0 C88.4293227,0 85.5656915,1.99568533 84.4569106,5.0004958 L78.3825589,21.4620658 C77.2858507,24.4341588 78.8061505,27.7325739 81.7782435,28.8292821 C82.398834,29.0582812 83.0543584,29.1782106 83.7158282,29.1837669 L84.4907435,29.1902761 C87.6586131,29.2168858 90.2051074,31.806523 90.1784976,34.9743926 C90.1726907,35.6657068 90.0419605,36.3502777 89.792613,36.9950838 L84.5152622,50.6421773 C83.3726555,53.5969287 84.8416891,56.9184937 87.7964405,58.0611003 C88.4407809,58.3102677 89.1248326,58.4409906 89.815646,58.4469723 L94.3041067,58.4860541 C96.6731589,58.506351 98.8110836,57.0683048 99.6852007,54.8663174 L118.348136,7.85254023 C119.516993,4.90807431 118.077577,1.57356737 115.133111,0.404710509 C114.459543,0.137325937 113.741408,0 113.016709,0 Z"/>
        </g>
        <path d="M631.639925,0 C633.361423,0 634.926422,0.543014946 636.33492,1.62904484 C637.743419,2.71507473 638.447668,4.11139888 638.447668,5.81801728 L638.447668,166.860736 C638.447668,170.584267 636.49142,172.523606 632.578924,172.678753 L622.249934,172.678753 C619.276436,172.678753 616.615939,172.446032 614.268441,171.980591 C612.077443,171.360002 610.747194,169.769744 610.277695,167.209817 C609.808195,164.649889 609.260446,161.896028 608.634446,158.948232 C604.72195,164.533529 600.379079,168.606141 595.605834,171.166068 C590.832588,173.725996 584.455219,175.00596 576.473727,175.00596 C568.335734,175.00596 560.941116,173.454489 554.289873,170.351546 C547.638629,167.248603 541.887259,163.059631 537.035764,157.784629 C532.184269,152.509626 528.428272,146.264954 525.767775,139.050613 C523.107277,131.836272 521.777028,124.195276 521.777028,116.127625 C521.777028,107.904827 523.107277,100.225044 525.767775,93.0882765 C528.428272,85.9515086 532.145144,79.7068368 536.918389,74.3542609 C541.691635,69.001685 547.482129,64.7739257 554.289873,61.6709832 C561.097616,58.5680406 568.648734,57.0165694 576.943226,57.0165694 C584.455219,57.0165694 590.402214,58.2577464 594.78421,60.7401004 C599.166205,63.2224545 603.000452,66.4805441 606.286949,70.5143695 L606.286949,5.81801728 C606.286949,1.93933909 608.321447,0 612.390443,0 L631.639925,0 Z M581.617514,85.8825544 C577.314459,85.8825544 573.434025,86.6958246 569.976214,88.3223649 C566.518402,89.9489053 563.636892,92.1563529 561.331684,94.9447078 C559.026476,97.7330628 557.25915,101.024871 556.029706,104.820132 C554.800262,108.615392 554.18554,112.604289 554.18554,116.786821 C554.18554,120.969354 554.800262,124.919523 556.029706,128.63733 C557.25915,132.355136 559.026476,135.608217 561.331684,138.396572 C563.636892,141.184927 566.518402,143.392375 569.976214,145.018915 C573.434025,146.645455 577.314459,147.458725 581.617514,147.458725 C585.613207,147.458725 589.30154,146.645455 592.682511,145.018915 C596.063483,143.392375 598.983413,141.223654 601.442301,138.512753 C603.90119,135.801853 605.822197,132.587499 607.205321,128.869693 C608.588446,125.151886 609.280008,121.201717 609.280008,117.019184 L609.280008,116.786821 C609.280008,112.604289 608.588446,108.615392 607.205321,104.820132 C605.822197,101.024871 603.93961,97.7330628 601.557562,94.9447078 C599.175514,92.1563529 596.294004,89.9489053 592.913032,88.3223649 C589.532061,86.6958246 585.766888,85.8825544 581.617514,85.8825544 Z" id="d" fill="#111111" fill-rule="nonzero"/>
    </g>
</svg>
